<svg width="80" height="17" viewBox="0 0 80 17" fill="none" xmlns="http://www.w3.org/2000/svg">
<g clip-path="url(#clip0_481_898)">
<path d="M1.77057 1C1.32912 2.96721 0.889776 14.2787 1.77057 15.2623C2.65137 16.2459 14.9888 16.2459 15.8701 15.2623C16.7513 14.2787 15.8701 9.85246 15.8701 9.85246" stroke="#367DCB" stroke-width="3" stroke-linecap="round"/>
<path d="M22.1106 14.7173C20.9788 13.915 20.9787 3.48601 22.1106 2.45457C23.2425 1.42313 35.4101 1.30853 36.542 2.45457C37.6739 3.60062 37.9569 13.8004 36.542 14.7173C35.1272 15.6341 23.2425 15.5195 22.1106 14.7173Z" stroke="#5E7181" stroke-width="3" stroke-linecap="round"/>
<path d="M57.1108 5.80305C57.1108 5.80305 57.9865 3.27163 57.1108 2.25931C56.2352 1.24698 44.0214 1.24681 43.1524 2.25931C42.2834 3.2718 42.2817 13.9031 43.1524 14.9155C44.0232 15.9279 56.6779 15.4216 57.1108 14.9155C57.5438 14.4095 57.5503 10.8653 57.1108 10.3593C56.6714 9.85323 49.6922 9.85323 49.2592 10.3593C48.8262 10.8653 49.2592 12.3843 49.2592 12.3843" stroke="#367DCB" stroke-width="3" stroke-linecap="round"/>
<path d="M63.3489 14.7173C62.217 13.915 62.217 3.48601 63.3489 2.45457C64.4808 1.42313 76.6484 1.30853 77.7803 2.45457C78.9122 3.60062 79.1951 13.8004 77.7803 14.7173C76.3655 15.6341 64.4808 15.5195 63.3489 14.7173Z" stroke="#5E7181" stroke-width="3" stroke-linecap="round"/>
</g>
<defs>
<clipPath id="clip0_481_898">
<rect x="0.261719" width="79.4765" height="17" rx="1.41964" fill="white"/>
</clipPath>
</defs>
</svg>
